%TF.GenerationSoftware,KiCad,Pcbnew,9.0.0*%
%TF.CreationDate,2025-02-23T16:43:19+09:00*%
%TF.ProjectId,YATA-PCB,59415441-2d50-4434-922e-6b696361645f,rev?*%
%TF.SameCoordinates,Original*%
%TF.FileFunction,Drillmap*%
%TF.FilePolarity,Positive*%
%FSLAX45Y45*%
G04 Gerber Fmt 4.5, Leading zero omitted, Abs format (unit mm)*
G04 Created by KiCad (PCBNEW 9.0.0) date 2025-02-23 16:43:19*
%MOMM*%
%LPD*%
G01*
G04 APERTURE LIST*
%ADD10C,0.050000*%
%ADD11C,0.200000*%
G04 APERTURE END LIST*
D10*
X7500000Y-14500000D02*
X7500000Y-5500000D01*
X7500000Y-5500000D02*
G75*
G02*
X8000000Y-5000000I500000J0D01*
G01*
X17000000Y-15000000D02*
X8000000Y-15000000D01*
X8000000Y-5000000D02*
X17000000Y-5000000D01*
X17000000Y-5000000D02*
G75*
G02*
X17500000Y-5500000I0J-500000D01*
G01*
X8000000Y-15000000D02*
G75*
G02*
X7500000Y-14500000I0J500000D01*
G01*
X17500000Y-14500000D02*
G75*
G02*
X17000000Y-15000000I-500000J0D01*
G01*
X17500000Y-5500000D02*
X17500000Y-14500000D01*
D11*
X7758277Y-15313984D02*
X7758277Y-15113984D01*
X7758277Y-15113984D02*
X7805896Y-15113984D01*
X7805896Y-15113984D02*
X7834467Y-15123508D01*
X7834467Y-15123508D02*
X7853515Y-15142555D01*
X7853515Y-15142555D02*
X7863039Y-15161603D01*
X7863039Y-15161603D02*
X7872562Y-15199698D01*
X7872562Y-15199698D02*
X7872562Y-15228269D01*
X7872562Y-15228269D02*
X7863039Y-15266365D01*
X7863039Y-15266365D02*
X7853515Y-15285412D01*
X7853515Y-15285412D02*
X7834467Y-15304460D01*
X7834467Y-15304460D02*
X7805896Y-15313984D01*
X7805896Y-15313984D02*
X7758277Y-15313984D01*
X7958277Y-15313984D02*
X7958277Y-15180650D01*
X7958277Y-15218746D02*
X7967801Y-15199698D01*
X7967801Y-15199698D02*
X7977324Y-15190174D01*
X7977324Y-15190174D02*
X7996372Y-15180650D01*
X7996372Y-15180650D02*
X8015420Y-15180650D01*
X8082086Y-15313984D02*
X8082086Y-15180650D01*
X8082086Y-15113984D02*
X8072562Y-15123508D01*
X8072562Y-15123508D02*
X8082086Y-15133031D01*
X8082086Y-15133031D02*
X8091610Y-15123508D01*
X8091610Y-15123508D02*
X8082086Y-15113984D01*
X8082086Y-15113984D02*
X8082086Y-15133031D01*
X8205896Y-15313984D02*
X8186848Y-15304460D01*
X8186848Y-15304460D02*
X8177324Y-15285412D01*
X8177324Y-15285412D02*
X8177324Y-15113984D01*
X8310658Y-15313984D02*
X8291610Y-15304460D01*
X8291610Y-15304460D02*
X8282086Y-15285412D01*
X8282086Y-15285412D02*
X8282086Y-15113984D01*
X8539229Y-15313984D02*
X8539229Y-15113984D01*
X8539229Y-15113984D02*
X8605896Y-15256841D01*
X8605896Y-15256841D02*
X8672563Y-15113984D01*
X8672563Y-15113984D02*
X8672563Y-15313984D01*
X8853515Y-15313984D02*
X8853515Y-15209222D01*
X8853515Y-15209222D02*
X8843991Y-15190174D01*
X8843991Y-15190174D02*
X8824944Y-15180650D01*
X8824944Y-15180650D02*
X8786848Y-15180650D01*
X8786848Y-15180650D02*
X8767801Y-15190174D01*
X8853515Y-15304460D02*
X8834467Y-15313984D01*
X8834467Y-15313984D02*
X8786848Y-15313984D01*
X8786848Y-15313984D02*
X8767801Y-15304460D01*
X8767801Y-15304460D02*
X8758277Y-15285412D01*
X8758277Y-15285412D02*
X8758277Y-15266365D01*
X8758277Y-15266365D02*
X8767801Y-15247317D01*
X8767801Y-15247317D02*
X8786848Y-15237793D01*
X8786848Y-15237793D02*
X8834467Y-15237793D01*
X8834467Y-15237793D02*
X8853515Y-15228269D01*
X8948753Y-15180650D02*
X8948753Y-15380650D01*
X8948753Y-15190174D02*
X8967801Y-15180650D01*
X8967801Y-15180650D02*
X9005896Y-15180650D01*
X9005896Y-15180650D02*
X9024944Y-15190174D01*
X9024944Y-15190174D02*
X9034467Y-15199698D01*
X9034467Y-15199698D02*
X9043991Y-15218746D01*
X9043991Y-15218746D02*
X9043991Y-15275888D01*
X9043991Y-15275888D02*
X9034467Y-15294936D01*
X9034467Y-15294936D02*
X9024944Y-15304460D01*
X9024944Y-15304460D02*
X9005896Y-15313984D01*
X9005896Y-15313984D02*
X8967801Y-15313984D01*
X8967801Y-15313984D02*
X8948753Y-15304460D01*
X9129705Y-15294936D02*
X9139229Y-15304460D01*
X9139229Y-15304460D02*
X9129705Y-15313984D01*
X9129705Y-15313984D02*
X9120182Y-15304460D01*
X9120182Y-15304460D02*
X9129705Y-15294936D01*
X9129705Y-15294936D02*
X9129705Y-15313984D01*
X9129705Y-15190174D02*
X9139229Y-15199698D01*
X9139229Y-15199698D02*
X9129705Y-15209222D01*
X9129705Y-15209222D02*
X9120182Y-15199698D01*
X9120182Y-15199698D02*
X9129705Y-15190174D01*
X9129705Y-15190174D02*
X9129705Y-15209222D01*
M02*
