M48
; DRILL file {KiCad 9.0.0} date 2025-02-23T16:43:19+0900
; FORMAT={-:-/ absolute / metric / decimal}
; #@! TF.CreationDate,2025-02-23T16:43:19+09:00
; #@! TF.GenerationSoftware,Kicad,Pcbnew,9.0.0
; #@! TF.FileFunction,Plated,1,4,PTH
FMAT,2
METRIC
; #@! TA.AperFunction,Plated,PTH,ViaDrill
T1C0.300
; #@! TA.AperFunction,Plated,PTH,ComponentDrill
T2C0.800
; #@! TA.AperFunction,Plated,PTH,ComponentDrill
T3C0.950
; #@! TA.AperFunction,Plated,PTH,ComponentDrill
T4C1.000
; #@! TA.AperFunction,Plated,PTH,ComponentDrill
T5C1.100
; #@! TA.AperFunction,Plated,PTH,ComponentDrill
T6C1.600
; #@! TA.AperFunction,Plated,PTH,ComponentDrill
T7C1.900
; #@! TA.AperFunction,Plated,PTH,ComponentDrill
T8C2.000
; #@! TA.AperFunction,Plated,PTH,ComponentDrill
T9C2.200
; #@! TA.AperFunction,Plated,PTH,ComponentDrill
T10C3.200
%
G90
G05
T1
X83.623Y-89.15
X84.44Y-105.518
X84.75Y-101.5
X89.25Y-89.5
X90.5Y-106.0
X91.0Y-84.0
X91.501Y-86.55
X92.25Y-100.5
X93.0Y-103.625
X112.25Y-98.75
X117.25Y-104.25
X118.75Y-98.0
X119.75Y-96.75
X120.5Y-98.0
X121.0Y-105.25
X121.25Y-96.5
X122.0Y-94.5
X122.0Y-95.5
X122.008Y-101.972
X122.25Y-100.5
X122.75Y-103.625
X123.0Y-99.25
X123.0Y-106.75
X123.5Y-101.75
X124.51Y-103.626
X125.0Y-99.5
X125.25Y-104.3
X126.25Y-96.75
X127.0Y-105.5
X127.25Y-94.75
X127.75Y-102.0
X129.75Y-108.5
X131.5Y-81.75
X131.75Y-94.75
X131.75Y-98.25
X131.75Y-106.25
X132.0Y-101.725
X132.5Y-117.0
X133.75Y-107.75
X133.75Y-111.75
X133.75Y-116.75
X134.0Y-90.0
X134.5Y-84.25
X135.5Y-94.25
X136.25Y-107.75
X136.25Y-117.5
X136.5Y-111.75
X136.75Y-89.75
X137.0Y-85.0
X138.0Y-117.0
X138.5Y-84.5
X138.5Y-107.5
X139.25Y-94.0
X139.5Y-116.75
X139.75Y-84.5
X139.75Y-107.5
X140.5Y-118.0
X141.0Y-84.5
X141.75Y-118.0
X142.0Y-94.25
X142.5Y-85.25
X142.5Y-107.5
X143.25Y-116.75
X143.75Y-84.5
X143.75Y-107.5
X144.25Y-118.5
X144.5Y-94.25
X144.75Y-117.0
X145.0Y-133.5
X145.25Y-85.0
X145.75Y-117.0
X146.0Y-116.0
X146.75Y-107.5
X147.25Y-84.0
X147.25Y-93.75
X148.25Y-117.25
X149.0Y-112.25
X149.25Y-85.0
X149.5Y-133.0
X149.75Y-114.75
X150.0Y-74.25
X150.25Y-89.5
X150.5Y-133.0
X150.5Y-141.5
X150.969Y-74.031
X151.0Y-106.25
X151.25Y-95.5
X151.25Y-101.0
X151.5Y-103.75
X152.0Y-111.75
X152.037Y-93.212
X153.0Y-108.75
X153.5Y-65.75
X155.25Y-102.5
X156.25Y-101.75
X156.75Y-107.0
X158.5Y-72.5
X158.75Y-76.5
X158.75Y-77.5
X159.5Y-104.25
X159.75Y-75.5
X159.75Y-76.5
X159.75Y-77.5
X159.75Y-94.75
X160.0Y-108.75
X160.75Y-75.5
X160.75Y-76.5
X160.75Y-77.5
X160.75Y-95.0
X160.75Y-96.25
X160.75Y-107.25
X161.0Y-105.0
X161.5Y-97.0
X161.5Y-98.25
X161.5Y-101.375
X161.75Y-75.5
X161.75Y-76.5
X161.75Y-77.5
X162.5Y-101.625
X162.75Y-75.5
X162.75Y-76.5
X162.75Y-77.5
X163.5Y-96.5
X163.75Y-69.5
X163.75Y-70.5
X163.75Y-71.5
X163.75Y-72.5
X163.75Y-73.5
X163.75Y-74.5
X163.75Y-75.5
X163.75Y-76.5
X163.75Y-77.5
X164.75Y-69.5
X164.75Y-70.5
X164.75Y-71.5
X164.75Y-72.5
X164.75Y-73.5
X164.75Y-74.5
X164.75Y-75.5
X164.75Y-76.5
X164.75Y-77.5
X165.75Y-67.5
X165.75Y-68.5
X165.75Y-69.5
X165.75Y-70.5
X165.75Y-71.5
X165.75Y-72.5
X165.75Y-73.5
X165.75Y-74.5
X165.75Y-75.5
X165.75Y-76.5
X165.75Y-77.5
X166.0Y-66.25
X166.75Y-69.5
X166.75Y-70.5
X166.75Y-71.5
X166.75Y-72.5
X166.75Y-73.5
X166.75Y-74.5
X166.75Y-75.5
X166.75Y-76.5
X166.75Y-77.5
X171.0Y-86.25
X172.0Y-89.5
X174.0Y-89.5
T2
X114.25Y-93.75
X114.25Y-103.0
X152.0Y-78.25
X154.75Y-71.25
X156.5Y-120.5
T3
X79.312Y-78.275
X79.312Y-80.775
X79.312Y-83.275
X79.312Y-85.775
X79.312Y-88.275
X79.312Y-90.775
X79.438Y-103.975
X79.438Y-106.475
X79.438Y-108.975
X79.438Y-111.475
X79.438Y-113.975
X142.75Y-145.312
X145.25Y-145.312
X147.75Y-145.312
X150.25Y-145.312
X152.75Y-145.312
X155.25Y-145.312
X159.25Y-79.75
X161.75Y-79.75
X164.25Y-62.5
X164.25Y-79.75
X166.75Y-62.5
X166.75Y-79.75
X169.25Y-62.5
X169.25Y-79.75
X171.0Y-114.0
X171.0Y-116.5
X171.75Y-62.5
X171.75Y-79.75
T4
X148.5Y-53.675
X159.5Y-53.675
T5
X114.25Y-91.25
X114.25Y-96.25
X114.25Y-100.5
X114.25Y-105.5
X149.5Y-78.25
X154.0Y-120.5
X154.5Y-78.25
X154.75Y-68.75
X154.75Y-73.75
X159.0Y-120.5
T6
X169.46Y-102.54
T7
X151.5Y-63.675
X156.5Y-63.675
T8
X166.92Y-100.0
X166.92Y-105.08
X172.0Y-100.0
X172.0Y-105.08
T9
X141.5Y-97.75
X141.5Y-103.75
T10
X80.0Y-55.0
X80.0Y-145.0
X170.0Y-55.0
X170.0Y-145.0
M30
